Coordinates
version=1
nRows=22
nColumns=24
inDegrees=yes

Units are S.I. units (second, meters, Newtons, ...)
Angles are in degrees.

endheader
time	pelvis_tilt	pelvis_list	pelvis_rotation	pelvis_tx	pelvis_ty	pelvis_tz	hip_flexion_r	hip_adduction_r	hip_rotation_r	knee_angle_r	ankle_angle_r	subtalar_angle_r	mtp_angle_r	hip_flexion_l	hip_adduction_l	hip_rotation_l	knee_angle_l	ankle_angle_l	subtalar_angle_l	mtp_angle_l	lumbar_extension	lumbar_bending	lumbar_rotation
      1.11683333	      0.00585091	      0.41954804	      1.51186904	      0.49223261	      1.02286006	      0.30714734	      6.60751972	      5.13982525	      0.69354205	    -11.52580981	      3.77181927	    -15.01225698	      5.89428052	     14.30598035	     -1.02421027	     -2.02881832	    -64.10433890	      5.13162082	     -7.99582614	      6.01584758	      0.45760192	      0.28366989	      4.49330822
      1.12100000	      0.03663965	      0.48656950	      1.16199332	      0.49679545	      1.02320203	      0.30783311	      6.19958191	      5.11604405	      0.94946990	    -11.32629660	      3.85817985	    -14.89361575	      5.99384005	     14.74303063	     -0.99787420	     -2.31776997	    -63.74005734	      5.30026900	     -7.96930370	      6.04840117	      0.41205613	      0.22407135	      4.75004593
      1.12516667	      0.04707692	      0.53915183	      0.82427445	      0.50132430	      1.02346962	      0.30848179	      5.82358616	      5.10039958	      1.18877078	    -11.14101085	      3.92274190	    -14.75350547	      6.03654240	     15.20433173	     -0.98732729	     -2.59352141	    -63.36266593	      5.45189668	     -7.99534226	      6.06004577	      0.38546707	      0.18792031	      4.84865827
      1.12933333	      0.10769017	      0.59374949	      0.49108993	      0.50585271	      1.02379082	      0.30914660	      5.38437510	      5.08300494	      1.44533256	    -10.94140621	      4.03820228	    -14.67509814	      6.14074522	     15.59727792	     -0.98578139	     -2.87546887	    -62.94371344	      5.58421249	     -8.00787848	      6.08378867	      0.30419491	      0.12983028	      5.22192973
      1.13350000	      0.11958740	      0.63905911	      0.16296136	      0.51034906	      1.02401683	      0.30978265	      5.01342553	      5.06818893	      1.68994104	    -10.76674509	      4.11295678	    -14.55240281	      6.18756059	     16.04271139	     -0.99291291	     -3.14913329	    -62.50830949	      5.70091155	     -8.08170426	      6.09137906	      0.27264031	      0.09039079	      5.31826001
      1.13766667	      0.14393976	      0.68486674	     -0.16438561	      0.51482733	      1.02421135	      0.31041553	      4.63477989	      5.05035923	      1.95059343	    -10.60688426	      4.22150008	    -14.45601918	      6.24329866	     16.46679094	     -1.00781100	     -3.43075929	    -62.04741770	      5.79484473	     -8.17116301	      6.09790036	      0.22186224	      0.04998449	      5.50918084
      1.14183333	      0.17353117	      0.72640054	     -0.48082047	      0.51931094	      1.02439724	      0.31103214	      4.24786370	      5.03248662	      2.19689033	    -10.44174566	      4.33193388	    -14.37761918	      6.30553850	     16.87500807	     -1.02904840	     -3.70344461	    -61.55410229	      5.87148393	     -8.28766535	      6.10240228	      0.18229031	      0.00870068	      5.73328969
      1.14600000	      0.20753746	      0.76582112	     -0.78344653	      0.52377459	      1.02456856	      0.31160967	      3.85797261	      5.01113026	      2.43984502	    -10.27952043	      4.44445452	    -14.29404699	      6.36854923	     17.27238188	     -1.04715604	     -3.95551592	    -61.03372447	      5.93372588	     -8.41466247	      6.10409922	      0.12896957	     -0.02311583	      5.93645469
      1.15016667	      0.26007981	      0.80363970	     -1.07996498	      0.52821980	      1.02474655	      0.31217291	      3.44766075	      4.98730175	      2.68742730	    -10.11531923	      4.56457394	    -14.21939172	      6.44703860	     17.63933418	     -1.06666863	     -4.20009585	    -60.48068753	      5.97762489	     -8.56543406	      6.10350995	      0.04743974	     -0.05737615	      6.16867709
      1.15433333	      0.28186027	      0.82925136	     -1.36015523	      0.53265611	      1.02484969	      0.31270877	      3.07062453	      4.97289227	      2.93464958	     -9.95141794	      4.68130462	    -14.14496446	      6.54042344	     18.03826958	     -1.09723752	     -4.42184574	    -59.91502659	      6.01605714	     -8.71634310	      6.09935376	     -0.00565589	     -0.08439623	      6.38210633
      1.15850000	      0.27469389	      0.84238606	     -1.64807289	      0.53707921	      1.02485654	      0.31324317	      2.74212546	      4.96898020	      3.17579011	     -9.82349964	      4.79653202	    -14.04768654	      6.58491309	     18.46329688	     -1.15453129	     -4.66329846	    -59.33826187	      6.06729181	     -8.84730634	      6.09453143	     -0.02127132	     -0.09010299	      6.45552558
      1.16266667	      0.31293088	      0.87359861	     -1.92032293	      0.54150713	      1.02494414	      0.31374542	      2.35334293	      4.93968514	      3.41426435	     -9.67402113	      4.92983525	    -13.98043021	      6.67923328	     18.81854077	     -1.17737936	     -4.87554829	    -58.70340740	      6.07189978	     -9.03453794	      6.08089001	     -0.08497806	     -0.11661210	      6.70268701
      1.16683333	      0.32374256	      0.89094241	     -2.19292331	      0.54591802	      1.02495106	      0.31424432	      2.00497136	      4.92303337	      3.65096051	     -9.54595891	      5.07414767	    -13.90162779	      6.75341480	     19.20011946	     -1.22599343	     -5.09666381	    -58.05892042	      6.08611856	     -9.18370178	      6.06637105	     -0.11987115	     -0.13536101	      6.83608082
      1.17100000	      0.31838337	      0.89235051	     -2.45566415	      0.55032272	      1.02490788	      0.31471760	      1.67236870	      4.92018410	      3.88539213	     -9.41389915	      5.19620338	    -13.79474998	      6.78455588	     19.59493002	     -1.29363797	     -5.30614110	    -57.40325199	      6.11920122	     -9.30105478	      6.05794299	     -0.14469724	     -0.13537074	      6.88471514
      1.17516667	      0.34665821	      0.91719583	     -2.73553247	      0.55471914	      1.02492391	      0.31519082	      1.32160478	      4.88602287	      4.12154766	     -9.31977020	      5.34609191	    -13.72506758	      6.82765295	     19.92465009	     -1.33109646	     -5.52318601	    -56.68062571	      6.09907574	     -9.46401535	      6.04314818	     -0.19425263	     -0.14584550	      7.02788918
      1.17933333	      0.35117720	      0.91668823	     -2.97378630	      0.55912538	      1.02486378	      0.31561781	      0.96838221	      4.87700550	      4.34397309	     -9.16799849	      5.48638409	    -13.61869117	      6.85584898	     20.28774813	     -1.39224753	     -5.70074545	    -55.96878188	      6.11117497	     -9.57584184	      6.03214764	     -0.23323974	     -0.15738173	      7.11359394
      1.18350000	      0.37256665	      0.93358024	     -3.24230129	      0.56350686	      1.02481776	      0.31604762	      0.63413001	      4.84360319	      4.56285213	     -9.09294219	      5.64225260	    -13.54544632	      6.89397059	     20.60518695	     -1.43583086	     -5.89847848	    -55.19781104	      6.08110358	     -9.71334603	      6.01474515	     -0.27902758	     -0.15598015	      7.26877014
      1.18766667	      0.37678794	      0.93798733	     -3.48817825	      0.56790107	      1.02472077	      0.31645486	      0.30268620	      4.82169482	      4.77364401	     -8.98595988	      5.79689907	    -13.44909464	      6.93188385	     20.93743419	     -1.49062563	     -6.07222752	    -54.41680657	      6.06580909	     -9.82045036	      5.99633282	     -0.30929746	     -0.15521056	      7.40649061
      1.19183333	      0.38908236	      0.94110890	     -3.71780758	      0.57230549	      1.02462218	      0.31682365	     -0.04184625	      4.79541197	      4.96238699	     -8.87145873	      5.96934999	    -13.34465166	      6.98622729	     21.25035733	     -1.53815416	     -6.22401401	    -53.60937066	      6.03823408	     -9.92354844	      5.96793571	     -0.35076920	     -0.15885311	      7.59061823
      1.19600000	      0.38110903	      0.92742035	     -3.95837456	      0.57668541	      1.02445517	      0.31719854	     -0.35033994	      4.78748866	      5.16719802	     -8.78501664	      6.11438963	    -13.24396076	      7.01595485	     21.57719480	     -1.61570199	     -6.38852092	    -52.79033481	      6.03254246	     -9.96336661	      5.95154394	     -0.37137768	     -0.13534644	      7.64506122
      1.20016667	      0.37310341	      0.93314536	     -4.19092562	      0.58109469	      1.02429629	      0.31755762	     -0.66125637	      4.75414418	      5.35764142	     -8.69384046	      6.27700415	    -13.14023513	      7.04362119	     21.88403932	     -1.66579882	     -6.54326869	    -51.92662263	      6.00246284	    -10.00596447	      5.93467105	     -0.38727061	     -0.13761168	      7.72770424
      1.20433333	      0.37797905	      0.92606407	     -4.41531438	      0.58549653	      1.02412181	      0.31789622	     -0.98506865	      4.73041955	      5.53260821	     -8.60589949	      6.44871149	    -13.02559898	      7.07351266	     22.16841457	     -1.72721263	     -6.68448627	    -51.04569410	      5.97323488	    -10.03188126	      5.91623398	     -0.42095368	     -0.12632373	      7.83217596
